<svg xmlns="http://www.w3.org/2000/svg" xmlns:xlink="http://www.w3.org/1999/xlink" id="Layer_1" x="0" y="0" enable-background="new 0 0 35 35" version="1.1" viewBox="0 0 35 35" xml:space="preserve"><style type="text/css">.st0{fill:#00b0b9}</style><path d="M19.1,4.9c0,1.2-1,2.2-2.2,2.2s-2.2-1-2.2-2.2s1-2.2,2.2-2.2S19.1,3.7,19.1,4.9z M16.9,8.9	c-1.3,0-2.3,1-2.3,2.3s1,2.3,2.3,2.3s2.3-1,2.3-2.3S18.2,8.9,16.9,8.9z M16.9,15.1c-1.3,0-2.4,1.1-2.4,2.4s1.1,2.4,2.4,2.4	s2.4-1.1,2.4-2.4S18.2,15.1,16.9,15.1z M16.9,21.5c-1.3,0-2.3,1-2.3,2.3s1,2.3,2.3,2.3s2.3-1,2.3-2.3C19.2,22.5,18.2,21.5,16.9,21.5	z M16.9,27.8c-1.2,0-2.2,1-2.2,2.2s1,2.2,2.2,2.2s2.2-1,2.2-2.2S18.1,27.8,16.9,27.8z M23,8.6c-1.4,0-2.6,1.2-2.6,2.6	s1.2,2.6,2.6,2.6c1.4,0,2.6-1.2,2.6-2.6S24.4,8.6,23,8.6z M23,14.8c-1.5,0-2.7,1.2-2.7,2.7s1.2,2.7,2.7,2.7s2.7-1.2,2.7-2.7	S24.5,14.8,23,14.8z M23,21.1c-1.4,0-2.6,1.2-2.6,2.6c0,1.4,1.2,2.6,2.6,2.6c1.4,0,2.6-1.2,2.6-2.6C25.6,22.3,24.4,21.1,23,21.1z M29.3,14.5c-1.6,0-3,1.3-3,3c0,1.6,1.3,3,3,3s3-1.3,3-3C32.2,15.8,30.9,14.5,29.3,14.5z M10.7,9.2c-1.1,0-2,0.9-2,2s0.9,2,2,2	s2-0.9,2-2S11.8,9.2,10.7,9.2z M10.7,15.4c-1.2,0-2.1,0.9-2.1,2.1c0,1.2,0.9,2.1,2.1,2.1s2.1-0.9,2.1-2.1S11.9,15.4,10.7,15.4z M10.7,21.8c-1.1,0-2,0.9-2,2c0,1.1,0.9,2,2,2s2-0.9,2-2C12.7,22.6,11.8,21.8,10.7,21.8z M4.5,15.7c-1,0-1.8,0.8-1.8,1.8	s0.8,1.8,1.8,1.8s1.8-0.8,1.8-1.8S5.5,15.7,4.5,15.7z" class="st0"/></svg>