<?xml version="1.0" encoding="utf-8"?>
<!-- Generator: Adobe Illustrator 22.1.0, SVG Export Plug-In . SVG Version: 6.00 Build 0)  -->
<svg version="1.1" id="Layer_1" xmlns="http://www.w3.org/2000/svg" xmlns:xlink="http://www.w3.org/1999/xlink" x="0px" y="0px"
	 viewBox="0 0 29.6 29.5" style="enable-background:new 0 0 29.6 29.5;" xml:space="preserve">
<style type="text/css">
	.st0{fill:#00B0B9;}
</style>
<path class="st0" d="M16.4,2.2c0,1.2-1,2.2-2.2,2.2S12,3.4,12,2.2S13,0,14.2,0S16.4,1,16.4,2.2z M14.2,6.2c-1.3,0-2.3,1-2.3,2.3
	s1,2.3,2.3,2.3s2.3-1,2.3-2.3S15.5,6.2,14.2,6.2z M14.2,12.4c-1.3,0-2.4,1.1-2.4,2.4s1.1,2.4,2.4,2.4s2.4-1.1,2.4-2.4
	S15.5,12.4,14.2,12.4z M14.2,18.7c-1.3,0-2.3,1-2.3,2.3s1,2.3,2.3,2.3s2.3-1,2.3-2.3C16.5,19.8,15.5,18.7,14.2,18.7z M14.2,25.1
	c-1.2,0-2.2,1-2.2,2.2s1,2.2,2.2,2.2s2.2-1,2.2-2.2S15.4,25.1,14.2,25.1z M20.3,5.9c-1.4,0-2.6,1.2-2.6,2.6s1.2,2.6,2.6,2.6
	s2.6-1.2,2.6-2.6S21.7,5.9,20.3,5.9z M20.3,12.1c-1.5,0-2.7,1.2-2.7,2.7s1.2,2.7,2.7,2.7s2.7-1.2,2.7-2.7S21.8,12.1,20.3,12.1z
	 M20.3,18.4c-1.4,0-2.6,1.2-2.6,2.6s1.2,2.6,2.6,2.6s2.6-1.2,2.6-2.6S21.7,18.4,20.3,18.4z M26.6,11.8c-1.6,0-3,1.3-3,3
	c0,1.6,1.3,3,3,3s3-1.3,3-3C29.5,13.1,28.2,11.8,26.6,11.8z M8,6.5c-1.1,0-2,0.9-2,2s0.9,2,2,2s2-0.9,2-2S9.1,6.5,8,6.5z M8,12.7
	c-1.2,0-2.1,0.9-2.1,2.1s0.9,2.1,2.1,2.1s2.1-0.9,2.1-2.1C10.1,13.6,9.2,12.7,8,12.7z M8,19c-1.1,0-2,0.9-2,2s0.9,2,2,2s2-0.9,2-2
	S9.1,19,8,19z M1.8,13c-1,0-1.8,0.8-1.8,1.8s0.8,1.8,1.8,1.8s1.8-0.8,1.8-1.8S2.8,13,1.8,13z"/>
</svg>
